<svg width="24" height="24" viewBox="0 0 24 24" fill="none" xmlns="http://www.w3.org/2000/svg">
<path d="M2 4.32323C2 3.64982 2.2357 3.09426 2.70707 2.65656C3.17844 2.21885 3.79125 2 4.54545 2C5.2862 2 5.88551 2.21547 6.34343 2.64646C6.8148 3.09091 7.0505 3.67002 7.0505 4.38383C7.0505 5.0303 6.82155 5.569 6.36363 5.99999C5.89226 6.44444 5.27272 6.66666 4.50505 6.66666H4.48484C3.7441 6.66666 3.14479 6.44444 2.68687 5.99999C2.22895 5.55555 2 4.99662 2 4.32323ZM2.26263 22V8.50504H6.74747V22H2.26263ZM9.23231 22H13.7172V14.4646C13.7172 13.9932 13.771 13.6296 13.8788 13.3737C14.0673 12.9158 14.3535 12.5286 14.7374 12.2121C15.1212 11.8956 15.6027 11.7374 16.1818 11.7374C17.6902 11.7374 18.4444 12.7542 18.4444 14.7879V22H22.9293V14.2626C22.9293 12.2693 22.4579 10.7576 21.5151 9.72726C20.5724 8.69696 19.3266 8.18181 17.7778 8.18181C16.0404 8.18181 14.6868 8.92928 13.7172 10.4242V10.4646H13.697L13.7172 10.4242V8.50504H9.23231C9.25924 8.93601 9.27272 10.2761 9.27272 12.5252C9.27272 14.7744 9.25924 17.9326 9.23231 22Z" fill="#0072B1"/>
</svg>
