<svg width="24" height="24" viewBox="0 0 24 24" fill="none" xmlns="http://www.w3.org/2000/svg">
<path d="M2 22L3.40583 16.8642C2.53833 15.3608 2.0825 13.6567 2.08333 11.9092C2.08583 6.44583 6.53167 2 11.9942 2C14.645 2.00083 17.1333 3.03333 19.005 4.90667C20.8758 6.78 21.9058 9.27 21.905 11.9183C21.9025 17.3825 17.4567 21.8283 11.9942 21.8283C10.3358 21.8275 8.70167 21.4117 7.25417 20.6217L2 22V22ZM7.4975 18.8275C8.89417 19.6567 10.2275 20.1533 11.9908 20.1542C16.5308 20.1542 20.2292 16.4592 20.2317 11.9167C20.2333 7.365 16.5525 3.675 11.9975 3.67333C7.45417 3.67333 3.75833 7.36833 3.75667 11.91C3.75583 13.7642 4.29917 15.1525 5.21167 16.605L4.37917 19.645L7.4975 18.8275V18.8275ZM16.9867 14.2742C16.925 14.1708 16.76 14.1092 16.5117 13.985C16.2642 13.8608 15.0467 13.2617 14.8192 13.1792C14.5925 13.0967 14.4275 13.055 14.2617 13.3033C14.0967 13.5508 13.6217 14.1092 13.4775 14.2742C13.3333 14.4392 13.1883 14.46 12.9408 14.3358C12.6933 14.2117 11.895 13.9508 10.9492 13.1067C10.2133 12.45 9.71583 11.6392 9.57167 11.3908C9.4275 11.1433 9.55667 11.0092 9.68 10.8858C9.79167 10.775 9.9275 10.5967 10.0517 10.4517C10.1775 10.3083 10.2183 10.205 10.3017 10.0392C10.3842 9.87417 10.3433 9.72917 10.2808 9.605C10.2183 9.48167 9.72333 8.2625 9.5175 7.76667C9.31583 7.28417 9.11167 7.34917 8.96 7.34167L8.485 7.33333C8.32 7.33333 8.05167 7.395 7.825 7.64333C7.59833 7.89167 6.95833 8.49 6.95833 9.70917C6.95833 10.9283 7.84583 12.1058 7.96917 12.2708C8.09333 12.4358 9.715 14.9375 12.1992 16.01C12.79 16.265 13.2517 16.4175 13.6108 16.5317C14.2042 16.72 14.7442 16.6933 15.1708 16.63C15.6467 16.5592 16.6358 16.0308 16.8425 15.4525C17.0492 14.8733 17.0492 14.3775 16.9867 14.2742V14.2742Z" fill="#25D366"/>
</svg>
